<svg xmlns="http://www.w3.org/2000/svg" viewBox="1823.2 848.7 1353.7 1303" fill="#d2ab73">
  <path d="M3012.4,1628.8c-55.3-40.1-110.6-80.1-166.4-119.4c-52.1-37.2-104.7-73.7-157.2-110.4v39.3c47.2,31.4,94.3,62.9,141.9,93.6c57.1,37.4,114.5,74.3,172.1,111c57.8,36.5,115.5,72.9,174.1,108.1C3122.6,1709.4,3067.5,1669.1,3012.4,1628.8z"/>
  <path d="M2732.4,1554.3c-14.4-10.6-28.9-21-43.5-31.3v35.8c9.4,6.1,18.8,12.2,28.2,18.1c38,24.5,76.6,48.4,115.1,72.3c38.8,23.5,77.5,47.1,117.2,69.4c-35.2-28.7-71.4-56.1-107.5-83.6C2805.6,1607.9,2769.1,1580.8,2732.4,1554.3z"/>
  <path d="M2688.8,1684.1v22.5c1.2,0.7,2.4,1.4,3.6,2.1c23.3,12.9,46.4,26,70.6,37.8c-19.8-18.2-40.4-35-60.9-51.8C2697.7,1691.1,2693.3,1687.6,2688.8,1684.1z"/>
  <path d="M2512.6,1400.1l-0.3-62.9c-0.1-5.9-0.2-11.8-0.2-17.7c-0.2-14.1-0.3-28.2-0.4-42.4c-0.4-34.2-0.8-68.5-1.6-102.7c-1.9-108.6-4.7-217.1-10.1-325.7c-5.4,108.6-8.3,217.1-10.2,325.7c-0.8,34.3-1.1,68.5-1.6,102.7l-122.8,84.5v40.5l122.4-82.5c0,5.9-0.1,11.8-0.2,17.7l-0.3,62.9l-109,75.3c-4.3,3.1-8.7,6.1-12.9,9.2v38.9c10.5-6.9,21-13.8,31.6-20.6l90.2-60.6l-0.3,57.8l0.3,55c-21.5,14.7-42.8,29.5-63.9,44.6c-19.4,13.9-38.8,27.8-57.9,42.3v33.1c2.4-1.5,5-3,7.4-4.5c23.3-14.1,46.2-28.8,69.1-43.5c15.2-9.9,30.4-19.9,45.5-30l0.3,65.8c0.7,54.3,1,108.6,2.2,162.9c1.9,108.6,4.7,217.1,10.2,325.7c5.4-108.6,8.3-217.1,10.2-325.7c1.2-54.3,1.4-108.6,2.2-162.9l0.3-65.8l0.2-42l0.3-55l-0.3-57.8L2512.6,1400.1z"/>
  <path d="M2675.1,1429.1l-0.1-12.2c-0.2-9.4-0.3-18.6-0.5-28c-0.4-25.6-0.8-51.3-1.7-76.9c-1.9-69.9-4.8-139.9-10.2-209.8c-5.4,69.9-8.3,139.9-10.2,209.8c-0.7,20.3-1,40.6-1.4,60.8l-118-81.2v41.8l117.3,79.1c0,1.5-0.1,2.9-0.1,4.4l-0.5,78.4c-9.4-6.6-18.7-13.3-28.1-19.9l-88.7-61.3v41.5l70.1,47c15.6,10.1,31,20.3,46.5,30.5l0.6,93.5c0.2,9.2,0.3,18.4,0.4,27.6c-3.8-3-7.7-5.9-11.5-8.7c-21.1-16.2-42.5-31.7-64.1-47.2c-13.9-10-27.9-19.8-42.1-29.6v41.6c7.8,5.2,15.6,10.3,23.4,15.4c22.3,14.3,44.7,28.7,67.4,42.3c9.1,5.6,18.2,11.1,27.4,16.5c0.3,15.6,0.7,31.4,1.2,47c1.9,69.9,4.8,139.9,10.2,209.8c5.4-69.9,8.3-139.9,10.2-209.8c0.4-11.3,0.7-22.5,1-33.7c0.2-8.4,0.3-16.9,0.4-25.3c0.3-15.3,0.4-30.6,0.8-45.9l0.5-76.7l0.2-28.2l-0.1-8.2L2675.1,1429.1z"/>
  <path d="M2349.7,1416.9c0-1.5-0.1-2.9-0.1-4.4c-0.3-13.3-0.4-26.5-0.6-39.8c-0.3-20.3-0.8-40.5-1.5-60.8c-1.9-69.9-4.7-139.9-10.1-209.8c-5.5,69.9-8.3,139.9-10.2,209.8c-0.9,25.6-1.3,51.3-1.7,76.9l-3.9,2.7c-55.9,39.3-112.1,77.9-167.6,117.7c-55.8,39.3-111.1,79.3-166.4,119.3c-55.1,40.4-110.2,80.7-164.4,122.3c58.6-35.1,116.3-71.7,174.1-108.1c57.5-36.8,115-73.6,172.1-111c52.2-33.7,103.8-68.5,155.6-102.8l-0.5,84.5c-19.1,13.5-37.9,26.9-56.7,40.7c-36.8,26.5-73.3,53.5-109.5,80.7c-36.1,27.5-72.3,54.9-107.5,83.6c39.7-22.3,78.4-45.9,117.2-69.4c38.6-23.8,77-47.7,115.1-72.3c13.9-8.7,27.7-17.7,41.5-26.7l0.4,76.6c0.3,15.1,0.5,30.2,0.9,45.4c-11,8.6-22,17.2-33,25.9c-21.1,17.3-42.3,34.4-62.6,53c24.7-12.1,48.4-25.5,72.3-38.8c8-4.5,15.8-9.2,23.7-13.7c0.2,11.1,0.5,22.1,0.9,33.2c1.9,69.9,4.8,139.9,10.3,209.8c5.4-69.9,8.3-139.9,10.2-209.8c0.5-15.6,0.9-31,1.1-46.6c0.2-10.3,0.4-20.6,0.5-30.9v-0.1c0.2-9.1,0.4-18.2,0.5-27.3l0.5-93.5l0.1-11.5l-0.2-26.6L2349.7,1416.9z"/>
</svg>
