<svg xmlns="http://www.w3.org/2000/svg" viewBox="20 111.48462437017662 535 352.02853366814514"><rect height="100%" width="100%" x="20" y="111.48462437017662" fill="rgba(5, 46, 51, 1)"/> <svg xmlns="http://www.w3.org/2000/svg" xmlns:xlink="http://www.w3.org/1999/xlink" version="1.1" id="pppp_1" x="208.93212870344306" y="181.48462437017662" viewBox="1823.19970703125 848.7000122070312 1353.700439453125 1302.900146484375" xml:space="preserve" height="151.2387901547652" width="157.135748587367" preserveAspectRatio="xMinYMin" enable-background="new 0 0 5000 3000" style="overflow: visible;"><line class="st0" x1="2479.1" y1="1871.9" x2="2479.1" y2="1851.6" style="fill: none;"></line><line class="st0" x1="2517.9" y1="1916.8" x2="2517.9" y2="1871.5" style="fill: none;"></line><path d="M3012.4,1628.8c-55.3-40.1-110.6-80.1-166.4-119.4c-52.1-37.2-104.7-73.7-157.2-110.4v39.3c47.2,31.4,94.3,62.9,141.9,93.6   c57.1,37.4,114.5,74.3,172.1,111c57.8,36.5,115.5,72.9,174.1,108.1C3122.6,1709.4,3067.5,1669.1,3012.4,1628.8z" style="fill: #d2ab73; fill-opacity: 1;"></path><path d="M2732.4,1554.3c-14.4-10.6-28.9-21-43.5-31.3v35.8c9.4,6.1,18.8,12.2,28.2,18.1c38,24.5,76.6,48.4,115.1,72.3   c38.8,23.5,77.5,47.1,117.2,69.4c-35.2-28.7-71.4-56.1-107.5-83.6C2805.6,1607.9,2769.1,1580.8,2732.4,1554.3z" style="fill: #d2ab73; fill-opacity: 1;"></path><path d="M2688.8,1684.1v22.5c1.2,0.7,2.4,1.4,3.6,2.1c23.3,12.9,46.4,26,70.6,37.8c-19.8-18.2-40.4-35-60.9-51.8   C2697.7,1691.1,2693.3,1687.6,2688.8,1684.1z" style="fill: #d2ab73; fill-opacity: 1;"></path><path d="M2512.6,1400.1l-0.3-62.9c-0.1-5.9-0.2-11.8-0.2-17.7c-0.2-14.1-0.3-28.2-0.4-42.4c-0.4-34.2-0.8-68.5-1.6-102.7   c-1.9-108.6-4.7-217.1-10.1-325.7c-5.4,108.6-8.3,217.1-10.2,325.7c-0.8,34.3-1.1,68.5-1.6,102.7l-122.8,84.5v40.5l122.4-82.5   c0,5.9-0.1,11.8-0.2,17.7l-0.3,62.9l-109,75.3c-4.3,3.1-8.7,6.1-12.9,9.2v38.9c10.5-6.9,21-13.8,31.6-20.6l90.2-60.6l-0.3,57.8   l0.3,55c-21.5,14.7-42.8,29.5-63.9,44.6c-19.4,13.9-38.8,27.8-57.9,42.3v33.1c2.4-1.5,5-3,7.4-4.5c23.3-14.1,46.2-28.8,69.1-43.5   c15.2-9.9,30.4-19.9,45.5-30l0.3,65.8c0.7,54.3,1,108.6,2.2,162.9c1.9,108.6,4.7,217.1,10.2,325.7c5.4-108.6,8.3-217.1,10.2-325.7   c1.2-54.3,1.4-108.6,2.2-162.9l0.3-65.8l0.2-42l0.3-55l-0.3-57.8L2512.6,1400.1z" style="fill: #d2ab73; fill-opacity: 1;"></path><path d="M2675.1,1429.1l-0.1-12.2c-0.2-9.4-0.3-18.6-0.5-28c-0.4-25.6-0.8-51.3-1.7-76.9c-1.9-69.9-4.8-139.9-10.2-209.8   c-5.4,69.9-8.3,139.9-10.2,209.8c-0.7,20.3-1,40.6-1.4,60.8l-118-81.2v41.8l117.3,79.1c0,1.5-0.1,2.9-0.1,4.4l-0.5,78.4   c-9.4-6.6-18.7-13.3-28.1-19.9l-88.7-61.3v41.5l70.1,47c15.6,10.1,31,20.3,46.5,30.5l0.6,93.5c0.2,9.2,0.3,18.4,0.4,27.6   c-3.8-3-7.7-5.9-11.5-8.7c-21.1-16.2-42.5-31.7-64.1-47.2c-13.9-10-27.9-19.8-42.1-29.6v41.6c7.8,5.2,15.6,10.3,23.4,15.4   c22.3,14.3,44.7,28.7,67.4,42.3c9.1,5.6,18.2,11.1,27.4,16.5c0.3,15.6,0.7,31.4,1.2,47c1.9,69.9,4.8,139.9,10.2,209.8   c5.4-69.9,8.3-139.9,10.2-209.8c0.4-11.3,0.7-22.5,1-33.7c0.2-8.4,0.3-16.9,0.4-25.3c0.3-15.3,0.4-30.6,0.8-45.9l0.5-76.7l0.2-28.2   l-0.1-8.2L2675.1,1429.1z" style="fill: #d2ab73; fill-opacity: 1;"></path><path d="M2349.7,1416.9c0-1.5-0.1-2.9-0.1-4.4c-0.3-13.3-0.4-26.5-0.6-39.8c-0.3-20.3-0.8-40.5-1.5-60.8   c-1.9-69.9-4.7-139.9-10.1-209.8c-5.5,69.9-8.3,139.9-10.2,209.8c-0.9,25.6-1.3,51.3-1.7,76.9l-3.9,2.7   c-55.9,39.3-112.1,77.9-167.6,117.7c-55.8,39.3-111.1,79.3-166.4,119.3c-55.1,40.4-110.2,80.7-164.4,122.3   c58.6-35.1,116.3-71.7,174.1-108.1c57.5-36.8,115-73.6,172.1-111c52.2-33.7,103.8-68.5,155.6-102.8l-0.5,84.5   c-19.1,13.5-37.9,26.9-56.7,40.7c-36.8,26.5-73.3,53.5-109.5,80.7c-36.1,27.5-72.3,54.9-107.5,83.6c39.7-22.3,78.4-45.9,117.2-69.4   c38.6-23.8,77-47.7,115.1-72.3c13.9-8.7,27.7-17.7,41.5-26.7l0.4,76.6c0.3,15.1,0.5,30.2,0.9,45.4c-11,8.6-22,17.2-33,25.9   c-21.1,17.3-42.3,34.4-62.6,53c24.7-12.1,48.4-25.5,72.3-38.8c8-4.5,15.8-9.2,23.7-13.7c0.2,11.1,0.5,22.1,0.9,33.2   c1.9,69.9,4.8,139.9,10.3,209.8c5.4-69.9,8.3-139.9,10.2-209.8c0.5-15.6,0.9-31,1.1-46.6c0.2-10.3,0.4-20.6,0.5-30.9v-0.1   c0.2-9.1,0.4-18.2,0.5-27.3l0.5-93.5l0.1-11.5l-0.2-26.6L2349.7,1416.9z" style="fill: #d2ab73; fill-opacity: 1;"></path></svg> <svg xmlns="http://www.w3.org/2000/svg" y="379.373157694999" viewBox="1.5699999332427979 5.289999961853027 176.5699920654297 14.140000343322754" x="199.2150065897709" height="14.140000343322754" width="176.5699920654297" style="overflow: visible;"><g fill="#F5F5F5" fill-opacity="1" style=""><path d="M9.31 6.67L2.81 6.67L2.81 11.78L8.08 11.78L8.08 12.96L2.81 12.96L2.81 19.24L1.57 19.24L1.57 5.49L9.31 5.49L9.31 6.67ZM17.82 19.24L16.58 19.24L16.58 5.49L17.82 5.49L17.82 19.24ZM34.01 19.24L33.36 19.24L27.62 9.23L27.51 8.63L27.51 19.24L26.27 19.24L26.27 5.49L26.91 5.49L32.65 15.51L32.77 16.09L32.77 5.49L34.01 5.49L34.01 19.24ZM50.20 15.86L50.20 15.86Q50.20 16.56 49.93 17.18Q49.67 17.79 49.21 18.25Q48.75 18.71 48.13 18.98Q47.51 19.24 46.81 19.24L46.81 19.24L42.46 19.24L42.46 5.49L46.81 5.49Q47.51 5.49 48.13 5.75Q48.75 6.01 49.21 6.47Q49.67 6.93 49.93 7.55Q50.20 8.17 50.20 8.87L50.20 8.87L50.20 15.86ZM48.96 15.86L48.96 8.87Q48.96 8.41 48.79 8.01Q48.61 7.62 48.31 7.31Q48.01 7.01 47.61 6.84Q47.21 6.67 46.75 6.67L46.75 6.67L43.69 6.67L43.69 18.06L46.75 18.06Q47.21 18.06 47.61 17.89Q48.01 17.71 48.31 17.42Q48.61 17.12 48.79 16.72Q48.96 16.32 48.96 15.86L48.96 15.86ZM75.41 5.49L71.88 12.66L71.88 19.24L70.64 19.24L70.64 12.68L67.09 5.49L68.42 5.49L71.25 11.20L74.08 5.49L75.41 5.49ZM90.22 16.06L90.22 16.06Q90.22 16.76 89.95 17.37Q89.69 17.98 89.23 18.44Q88.77 18.90 88.16 19.17Q87.54 19.43 86.84 19.43L86.84 19.43L85.86 19.43Q85.16 19.43 84.55 19.17Q83.93 18.90 83.47 18.44Q83.01 17.98 82.74 17.37Q82.48 16.76 82.48 16.06L82.48 16.06L82.48 8.67Q82.48 7.97 82.74 7.36Q83.01 6.74 83.47 6.28Q83.93 5.82 84.55 5.56Q85.16 5.29 85.86 5.29L85.86 5.29L86.84 5.29Q87.54 5.29 88.16 5.56Q88.77 5.82 89.23 6.28Q89.69 6.74 89.95 7.36Q90.22 7.97 90.22 8.67L90.22 8.67L90.22 16.06ZM88.98 16.06L88.98 8.67Q88.98 8.21 88.81 7.81Q88.64 7.41 88.34 7.12Q88.04 6.82 87.64 6.65Q87.25 6.47 86.78 6.47L86.78 6.47L85.92 6.47Q85.46 6.47 85.06 6.65Q84.67 6.82 84.36 7.12Q84.06 7.41 83.89 7.81Q83.72 8.21 83.72 8.67L83.72 8.67L83.72 16.06Q83.72 16.52 83.89 16.91Q84.06 17.31 84.36 17.61Q84.67 17.92 85.06 18.09Q85.46 18.26 85.92 18.26L85.92 18.26L86.78 18.26Q87.25 18.26 87.64 18.09Q88.04 17.92 88.34 17.61Q88.64 17.31 88.81 16.91Q88.98 16.52 88.98 16.06L88.98 16.06ZM106.01 16.06L106.01 16.06Q106.01 16.76 105.75 17.37Q105.49 17.98 105.03 18.44Q104.57 18.90 103.95 19.17Q103.34 19.43 102.64 19.43L102.64 19.43L101.66 19.43Q100.96 19.43 100.34 19.17Q99.72 18.90 99.26 18.44Q98.80 17.98 98.54 17.37Q98.27 16.76 98.27 16.06L98.27 16.06L98.27 5.49L99.51 5.49L99.51 16.06Q99.51 16.52 99.68 16.91Q99.86 17.31 100.16 17.61Q100.46 17.92 100.86 18.09Q101.26 18.26 101.72 18.26L101.72 18.26L102.58 18.26Q103.04 18.26 103.44 18.09Q103.84 17.92 104.13 17.61Q104.43 17.31 104.60 16.91Q104.78 16.52 104.78 16.06L104.78 16.06L104.78 5.49L106.01 5.49L106.01 16.06ZM122.16 19.24L120.74 19.24L117.00 13.37L115.31 13.37L115.31 19.24L114.07 19.24L114.07 5.49L118.43 5.49Q119.13 5.49 119.75 5.75Q120.36 6.01 120.82 6.47Q121.28 6.93 121.55 7.55Q121.81 8.17 121.81 8.87L121.81 8.87L121.81 9.98Q121.81 10.68 121.55 11.30Q121.28 11.92 120.82 12.38Q120.36 12.84 119.75 13.11Q119.13 13.37 118.43 13.37L118.43 13.37L122.16 19.24ZM120.57 9.98L120.57 8.87Q120.57 8.41 120.40 8.01Q120.23 7.62 119.93 7.31Q119.63 7.01 119.23 6.84Q118.84 6.67 118.38 6.67L118.38 6.67L115.31 6.67L115.31 12.19L118.38 12.19Q118.84 12.19 119.23 12.02Q119.63 11.84 119.93 11.54Q120.23 11.24 120.40 10.84Q120.57 10.44 120.57 9.98L120.57 9.98ZM147.39 10.58L147.39 10.58Q147.39 11.28 147.12 11.89Q146.86 12.51 146.40 12.97Q145.94 13.43 145.32 13.69Q144.70 13.95 144.00 13.95L144.00 13.95L140.89 13.95L140.89 19.24L139.65 19.24L139.65 5.49L144.00 5.49Q144.70 5.49 145.32 5.75Q145.94 6.01 146.40 6.47Q146.86 6.93 147.12 7.55Q147.39 8.17 147.39 8.87L147.39 8.87L147.39 10.58ZM146.15 10.58L146.15 8.87Q146.15 8.41 145.98 8.01Q145.81 7.62 145.50 7.31Q145.20 7.01 144.80 6.84Q144.40 6.67 143.94 6.67L143.94 6.67L140.89 6.67L140.89 12.77L143.94 12.77Q144.40 12.77 144.80 12.60Q145.20 12.43 145.50 12.13Q145.81 11.84 145.98 11.44Q146.15 11.04 146.15 10.58L146.15 10.58ZM162.94 19.24L161.51 19.24L157.78 13.37L156.09 13.37L156.09 19.24L154.85 19.24L154.85 5.49L159.21 5.49Q159.91 5.49 160.53 5.75Q161.14 6.01 161.60 6.47Q162.06 6.93 162.32 7.55Q162.59 8.17 162.59 8.87L162.59 8.87L162.59 9.98Q162.59 10.68 162.32 11.30Q162.06 11.92 161.60 12.38Q161.14 12.84 160.53 13.11Q159.91 13.37 159.21 13.37L159.21 13.37L162.94 19.24ZM161.35 9.98L161.35 8.87Q161.35 8.41 161.18 8.01Q161.01 7.62 160.71 7.31Q160.41 7.01 160.01 6.84Q159.62 6.67 159.16 6.67L159.16 6.67L156.09 6.67L156.09 12.19L159.16 12.19Q159.62 12.19 160.01 12.02Q160.41 11.84 160.71 11.54Q161.01 11.24 161.18 10.84Q161.35 10.44 161.35 9.98L161.35 9.98ZM178.14 16.06L178.14 16.06Q178.14 16.76 177.88 17.37Q177.62 17.98 177.16 18.44Q176.70 18.90 176.08 19.17Q175.47 19.43 174.77 19.43L174.77 19.43L173.79 19.43Q173.09 19.43 172.47 19.17Q171.85 18.90 171.39 18.44Q170.93 17.98 170.67 17.37Q170.40 16.76 170.40 16.06L170.40 16.06L170.40 8.67Q170.40 7.97 170.67 7.36Q170.93 6.74 171.39 6.28Q171.85 5.82 172.47 5.56Q173.09 5.29 173.79 5.29L173.79 5.29L174.77 5.29Q175.47 5.29 176.08 5.56Q176.70 5.82 177.16 6.28Q177.62 6.74 177.88 7.36Q178.14 7.97 178.14 8.67L178.14 8.67L178.14 16.06ZM176.91 16.06L176.91 8.67Q176.91 8.21 176.73 7.81Q176.56 7.41 176.26 7.12Q175.97 6.82 175.57 6.65Q175.17 6.47 174.71 6.47L174.71 6.47L173.85 6.47Q173.39 6.47 172.99 6.65Q172.59 6.82 172.29 7.12Q171.99 7.41 171.81 7.81Q171.64 8.21 171.64 8.67L171.64 8.67L171.64 16.06Q171.64 16.52 171.81 16.91Q171.99 17.31 172.29 17.61Q172.59 17.92 172.99 18.09Q173.39 18.26 173.85 18.26L173.85 18.26L174.71 18.26Q175.17 18.26 175.57 18.09Q175.97 17.92 176.26 17.61Q176.56 17.31 176.73 16.91Q176.91 16.52 176.91 16.06L176.91 16.06Z" transform="translate(0, 0)"></path></g></svg> <svg xmlns="http://www.w3.org/2000/svg" y="332.7234823331245" viewBox="0.75 5.849999904632568 395 29.39000129699707" x="90" height="29.39000129699707" width="395" style="overflow: visible;"><g fill="#F5F5F5" fill-opacity="1" style=""><path d="M18.07 23.65L8.29 23.65L5.77 29.90Q5.19 31.35 5.19 32.29L5.19 32.29Q5.19 33.59 6.36 34.14L6.36 34.14L0.75 34.14Q1.14 34.14 1.89 33.35Q2.63 32.57 3.61 30.25L3.61 30.25L13.87 5.85L24.04 30.37Q24.91 32.49 25.71 33.27Q26.52 34.06 26.99 34.14L26.99 34.14L20.47 34.14Q21.45 33.67 21.45 32.68L21.45 32.68Q21.45 31.86 20.82 30.33L20.82 30.33L18.07 23.65ZM8.96 22.04L17.44 22.04L13.16 11.55L8.96 22.04ZM49.10 34.14L34.29 34.14Q34.29 34.26 34.77 33.96Q35.24 33.67 35.61 32.78Q35.98 31.90 35.98 30.21L35.98 30.21L35.98 10.92Q35.98 9.31 35.61 8.47Q35.24 7.62 34.77 7.31Q34.29 6.99 34.29 7.11L34.29 7.11L48.52 7.11L48.52 11.04Q47.81 8.68 44.27 8.68L44.27 8.68L38.81 8.68L38.81 19.84L45.57 19.84Q46.36 19.84 46.91 19.58Q47.45 19.33 47.73 19.05Q48.00 18.78 48.04 18.70L48.04 18.70L48.04 22.51Q48.00 22.43 47.73 22.16Q47.45 21.88 46.92 21.65Q46.39 21.41 45.61 21.41L45.61 21.41L38.81 21.41L38.81 32.57L44.94 32.57Q46.71 32.57 47.99 31.84Q49.26 31.11 49.81 29.97L49.81 29.97L49.10 34.14ZM66.86 20.55Q68.67 20.55 70.00 19.70Q71.34 18.86 72.03 17.50Q72.71 16.15 72.71 14.65L72.71 14.65Q72.71 13.12 72.07 11.77Q71.42 10.41 70.08 9.55Q68.75 8.68 66.82 8.68L66.82 8.68L63.48 8.68L63.48 30.52Q63.48 32.09 63.88 32.90Q64.27 33.71 64.74 33.96Q65.21 34.22 65.21 34.14L65.21 34.14L58.97 34.14Q58.97 34.22 59.44 33.94Q59.91 33.67 60.28 32.88Q60.65 32.09 60.65 30.52L60.65 30.52L60.65 10.88Q60.65 9.27 60.28 8.43Q59.91 7.58 59.44 7.29Q58.97 6.99 58.97 7.11L58.97 7.11L66.74 7.11Q69.81 7.11 71.79 8.11Q73.78 9.11 74.66 10.70Q75.54 12.30 75.54 14.18L75.54 14.18Q75.54 15.75 74.80 17.27Q74.05 18.78 72.66 19.90Q71.26 21.02 69.41 21.45L69.41 21.45L68.79 21.57L75.70 30.37Q77.08 31.90 77.98 32.72Q78.88 33.55 79.29 33.82Q79.71 34.10 79.79 34.14L79.79 34.14L75.19 34.14L64.50 20.55L66.86 20.55ZM86.11 20.94Q86.11 16.77 87.90 13.51Q89.69 10.25 92.93 8.45Q96.17 6.64 100.41 6.64L100.41 6.64Q103.95 6.64 107.03 8.19Q110.11 9.74 111.98 12.85Q113.84 15.95 113.84 20.31L113.84 20.31Q113.84 24.47 112.06 27.73Q110.27 31.00 107.03 32.80Q103.79 34.61 99.55 34.61L99.55 34.61Q96.01 34.61 92.93 33.06Q89.84 31.51 87.98 28.40Q86.11 25.30 86.11 20.94L86.11 20.94ZM110.70 20.90Q110.70 17.32 109.23 14.44Q107.76 11.55 105.18 9.92Q102.61 8.29 99.39 8.29L99.39 8.29Q96.44 8.29 94.14 9.78Q91.85 11.27 90.55 14.00Q89.25 16.73 89.25 20.35L89.25 20.35Q89.25 23.92 90.73 26.81Q92.20 29.70 94.77 31.33Q97.35 32.96 100.57 32.96L100.57 32.96Q103.51 32.96 105.81 31.47Q108.11 29.97 109.41 27.24Q110.70 24.51 110.70 20.90L110.70 20.90ZM139.46 8.68Q137.73 8.68 136.59 9.35Q135.45 10.02 134.94 11.04L134.94 11.04L135.49 7.11L154.11 7.11L154.66 11.04Q154.15 10.02 153.01 9.35Q151.87 8.68 150.14 8.68L150.14 8.68L146.21 8.68L146.21 30.48Q146.21 32.06 146.61 32.88Q147.00 33.71 147.47 33.98Q147.94 34.26 147.94 34.14L147.94 34.14L141.70 34.14Q141.70 34.26 142.17 33.98Q142.64 33.71 143.01 32.90Q143.39 32.09 143.39 30.48L143.39 30.48L143.39 8.68L139.46 8.68ZM175.76 23.65L165.97 23.65L163.46 29.90Q162.87 31.35 162.87 32.29L162.87 32.29Q162.87 33.59 164.05 34.14L164.05 34.14L158.43 34.14Q158.82 34.14 159.57 33.35Q160.32 32.57 161.30 30.25L161.30 30.25L171.55 5.85L181.73 30.37Q182.59 32.49 183.40 33.27Q184.20 34.06 184.67 34.14L184.67 34.14L178.15 34.14Q179.13 33.67 179.13 32.68L179.13 32.68Q179.13 31.86 178.51 30.33L178.51 30.33L175.76 23.65ZM166.64 22.04L175.13 22.04L170.85 11.55L166.64 22.04ZM193.67 10.76Q193.67 9.19 193.30 8.39Q192.92 7.58 192.45 7.31Q191.98 7.03 191.98 7.11L191.98 7.11L198.23 7.11Q198.23 7.03 197.76 7.31Q197.28 7.58 196.89 8.39Q196.50 9.19 196.50 10.76L196.50 10.76L196.50 32.57L202.94 32.57Q204.71 32.57 205.99 31.84Q207.26 31.11 207.81 29.97L207.81 29.97L207.10 34.14L191.98 34.14Q191.98 34.26 192.45 33.96Q192.92 33.67 193.30 32.78Q193.67 31.90 193.67 30.21L193.67 30.21L193.67 10.76ZM230.60 34.14L215.79 34.14Q215.79 34.26 216.26 33.96Q216.73 33.67 217.10 32.78Q217.48 31.90 217.48 30.21L217.48 30.21L217.48 10.92Q217.48 9.31 217.10 8.47Q216.73 7.62 216.26 7.31Q215.79 6.99 215.79 7.11L215.79 7.11L230.01 7.11L230.01 11.04Q229.30 8.68 225.76 8.68L225.76 8.68L220.30 8.68L220.30 19.84L227.06 19.84Q227.85 19.84 228.40 19.58Q228.95 19.33 229.22 19.05Q229.50 18.78 229.54 18.70L229.54 18.70L229.54 22.51Q229.50 22.43 229.22 22.16Q228.95 21.88 228.42 21.65Q227.89 21.41 227.10 21.41L227.10 21.41L220.30 21.41L220.30 32.57L226.43 32.57Q228.20 32.57 229.48 31.84Q230.75 31.11 231.30 29.97L231.30 29.97L230.60 34.14ZM260.22 7.11L265.76 7.11Q265.21 7.23 264.68 7.99Q264.15 8.76 264.15 10.69L264.15 10.69L264.15 35.24L244.03 11.79L244.03 30.60Q244.03 32.49 244.70 33.25Q245.37 34.02 246.00 34.14L246.00 34.14L240.46 34.14Q241.01 34.02 241.58 33.25Q242.15 32.49 242.15 30.56L242.15 30.56L242.15 10.92Q242.15 9.59 241.24 8.49Q240.34 7.39 238.96 7.11L238.96 7.11L243.84 7.11L262.26 28.60L262.26 10.69Q262.26 7.66 260.22 7.11L260.22 7.11ZM278.29 8.68Q276.56 8.68 275.42 9.35Q274.28 10.02 273.77 11.04L273.77 11.04L274.32 7.11L292.94 7.11L293.49 11.04Q292.98 10.02 291.84 9.35Q290.70 8.68 288.97 8.68L288.97 8.68L285.04 8.68L285.04 30.48Q285.04 32.06 285.44 32.88Q285.83 33.71 286.30 33.98Q286.77 34.26 286.77 34.14L286.77 34.14L280.53 34.14Q280.53 34.26 281.00 33.98Q281.47 33.71 281.84 32.90Q282.22 32.09 282.22 30.48L282.22 30.48L282.22 8.68L278.29 8.68ZM332.34 14.42Q332.34 16.70 331.26 18.48Q330.18 20.27 328.18 21.29Q326.17 22.31 323.46 22.31L323.46 22.31Q321.81 22.31 319.93 21.96L319.93 21.96L319.93 30.52Q319.93 32.06 320.32 32.86Q320.71 33.67 321.19 33.94Q321.66 34.22 321.66 34.14L321.66 34.14L315.41 34.14Q315.41 34.22 315.88 33.94Q316.35 33.67 316.73 32.88Q317.10 32.09 317.10 30.52L317.10 30.52L317.10 10.84Q317.10 9.27 316.73 8.45Q316.35 7.62 315.88 7.33Q315.41 7.03 315.41 7.11L315.41 7.11L323.11 7.11Q325.11 7.11 326.41 7.37Q327.71 7.62 328.69 8.13L328.69 8.13Q330.46 9.04 331.40 10.74Q332.34 12.45 332.34 14.42L332.34 14.42ZM329.32 14.93Q329.32 12.14 327.59 10.41Q325.86 8.68 322.99 8.68L322.99 8.68L319.93 8.68L319.93 20.43Q321.62 20.74 323.46 20.74L323.46 20.74Q326.21 20.74 327.77 19.15Q329.32 17.56 329.32 14.93L329.32 14.93ZM348.76 20.55Q350.57 20.55 351.91 19.70Q353.24 18.86 353.93 17.50Q354.62 16.15 354.62 14.65L354.62 14.65Q354.62 13.12 353.97 11.77Q353.32 10.41 351.98 9.55Q350.65 8.68 348.72 8.68L348.72 8.68L345.38 8.68L345.38 30.52Q345.38 32.09 345.78 32.90Q346.17 33.71 346.64 33.96Q347.11 34.22 347.11 34.14L347.11 34.14L340.87 34.14Q340.87 34.22 341.34 33.94Q341.81 33.67 342.18 32.88Q342.56 32.09 342.56 30.52L342.56 30.52L342.56 10.88Q342.56 9.27 342.18 8.43Q341.81 7.58 341.34 7.29Q340.87 6.99 340.87 7.11L340.87 7.11L348.64 7.11Q351.71 7.11 353.69 8.11Q355.68 9.11 356.56 10.70Q357.44 12.30 357.44 14.18L357.44 14.18Q357.44 15.75 356.70 17.27Q355.95 18.78 354.56 19.90Q353.16 21.02 351.32 21.45L351.32 21.45L350.69 21.57L357.60 30.37Q358.98 31.90 359.88 32.72Q360.78 33.55 361.20 33.82Q361.61 34.10 361.69 34.14L361.69 34.14L357.09 34.14L346.41 20.55L348.76 20.55ZM368.01 20.94Q368.01 16.77 369.80 13.51Q371.59 10.25 374.83 8.45Q378.07 6.64 382.31 6.64L382.31 6.64Q385.85 6.64 388.93 8.19Q392.01 9.74 393.88 12.85Q395.75 15.95 395.75 20.31L395.75 20.31Q395.75 24.47 393.96 27.73Q392.17 31.00 388.93 32.80Q385.69 34.61 381.45 34.61L381.45 34.61Q377.91 34.61 374.83 33.06Q371.74 31.51 369.88 28.40Q368.01 25.30 368.01 20.94L368.01 20.94ZM392.60 20.90Q392.60 17.32 391.13 14.44Q389.66 11.55 387.08 9.92Q384.51 8.29 381.29 8.29L381.29 8.29Q378.34 8.29 376.05 9.78Q373.75 11.27 372.45 14.00Q371.15 16.73 371.15 20.35L371.15 20.35Q371.15 23.92 372.63 26.81Q374.10 29.70 376.67 31.33Q379.25 32.96 382.47 32.96L382.47 32.96Q385.41 32.96 387.71 31.47Q390.01 29.97 391.31 27.24Q392.60 24.51 392.60 20.90L392.60 20.90Z" transform="translate(0, 0)"></path></g></svg></svg>